<svg id="_20-30-70-20" data-name="20-30-70-20" xmlns="http://www.w3.org/2000/svg" viewBox="0 0 339.8 89.07"><title>Texas_State_Primary_H_White</title><polygon points="0 50.18 0 51.92 145.43 51.92 146 50.18 0 50.18" style="fill:#fff"/><polygon points="323.92 50.18 323.92 51.92 178.48 51.92 177.91 50.18 323.92 50.18" style="fill:#fff"/><path d="M357.85,90.61a4.69,4.69,0,1,1-4.69-4.69A4.7,4.7,0,0,1,357.85,90.61Zm-8.63,0a3.94,3.94,0,1,0,3.93-3.93A3.94,3.94,0,0,0,349.22,90.6ZM351.4,88h1.81c.62,0,1.83,0,1.83,1.39a1.2,1.2,0,0,1-1,1.29c.72,0,.77.52.87,1.19a5.11,5.11,0,0,0,.27,1.39h-1.11c0-.25-.2-1.59-.2-1.66-.07-.3-.18-.45-.55-.45h-.92v2.11h-1Zm1,2.3h.82a.7.7,0,0,0,.79-.74c0-.72-.49-.72-.77-.72h-.84Z" transform="translate(-18.04 -39.56)" style="fill:#fff"/><path d="M76,103.68v.68a5,5,0,0,0-2.76.72c-.42.37-.63,1.24-.63,2.6v11.81a10.47,10.47,0,0,0,.79,4.52c1,2,2.86,3,5.61,3,3,0,5-1,6.07-3a12,12,0,0,0,.87-5.23v-9.6q0-3-.72-3.78a4.42,4.42,0,0,0-2.74-1v-.68H91v.68a4.27,4.27,0,0,0-2.8,1c-.44.54-.66,1.77-.66,3.71v9.6a12.59,12.59,0,0,1-1.17,6q-2.16,3.94-8.22,3.95T70,124.73a11.24,11.24,0,0,1-1.17-5.51V107.68a3.7,3.7,0,0,0-.62-2.59,5.05,5.05,0,0,0-2.72-.73v-.68Z" transform="translate(-18.04 -39.56)" style="fill:#fff"/><path d="M93.65,127.42a4.4,4.4,0,0,0,2.94-1c.43-.53.64-1.77.64-3.72V106.4l-.5-.59a4,4,0,0,0-1.38-1.18,5.5,5.5,0,0,0-1.7-.27v-.68H100l14.25,17.66V109.07c0-2-.3-3.33-.91-3.94a4.56,4.56,0,0,0-2.63-.77v-.68h8.67v.68a4.34,4.34,0,0,0-2.81,1c-.47.54-.7,1.78-.7,3.72v19.43h-.63L98.86,108.29v14.38c0,2,.29,3.33.88,3.94a4.42,4.42,0,0,0,2.58.81v.69H93.65Z" transform="translate(-18.04 -39.56)" style="fill:#fff"/><path d="M122,127.42a6.23,6.23,0,0,0,2.92-.67c.44-.34.66-1.22.66-2.65V107.68c0-1.36-.22-2.23-.66-2.62a5.31,5.31,0,0,0-2.92-.7v-.68h10.92v.68a5.31,5.31,0,0,0-2.92.7,3.6,3.6,0,0,0-.67,2.62V124.1c0,1.43.23,2.31.67,2.65a6.23,6.23,0,0,0,2.92.67v.69H122Z" transform="translate(-18.04 -39.56)" style="fill:#fff"/><path d="M145.56,103.68v.63a7.3,7.3,0,0,0-1.89.18,1.17,1.17,0,0,0-.89,1.19,4,4,0,0,0,.32,1.29c.21.54.6,1.46,1.17,2.73l5.78,12.85,5.25-13.91c.23-.62.41-1.14.53-1.56a4.1,4.1,0,0,0,.18-1,1.44,1.44,0,0,0-.92-1.46,5.38,5.38,0,0,0-1.78-.26v-.63h7.55v.63a3.45,3.45,0,0,0-1.73.63,7,7,0,0,0-1.68,2.83l-8.17,20.77h-.56l-9.12-20.29a11.4,11.4,0,0,0-1.85-3.22,3.26,3.26,0,0,0-2-.72v-.63Z" transform="translate(-18.04 -39.56)" style="fill:#fff"/><path d="M163.62,127.42a5.24,5.24,0,0,0,2.64-.73c.4-.34.6-1.2.6-2.59V107.68a3.9,3.9,0,0,0-.59-2.57,4.44,4.44,0,0,0-2.65-.75v-.68h19.61l.13,5.28h-.94A5.19,5.19,0,0,0,181,105.8c-.62-.48-2-.71-4.18-.71h-5c-.54,0-.87.08-1,.26a1.74,1.74,0,0,0-.19,1v8.24h5.7c1.57,0,2.58-.24,3-.7a6.05,6.05,0,0,0,1-2.84h.87v8.53h-.87a6.08,6.08,0,0,0-1.06-2.84c-.43-.46-1.43-.69-3-.69h-5.7v9.14c0,.73.23,1.16.7,1.29a22.56,22.56,0,0,0,4.16.2,14,14,0,0,0,5.54-.82q1.78-.82,3.21-4h1l-1.68,6.24H163.62Z" transform="translate(-18.04 -39.56)" style="fill:#fff"/><path d="M187.79,127.42a4.23,4.23,0,0,0,2.65-.82,5.23,5.23,0,0,0,.52-2.93v-16a3.85,3.85,0,0,0-.58-2.55,4.32,4.32,0,0,0-2.59-.77v-.68H198a15.07,15.07,0,0,1,5.32.81,5.62,5.62,0,0,1,4,5.63,5.17,5.17,0,0,1-1.79,4.23,9.94,9.94,0,0,1-4.88,2l7.61,9.37a5.09,5.09,0,0,0,1.4,1.25,4.62,4.62,0,0,0,1.81.5v.69h-6l-9.24-11.38-1.62.09v7.28c0,1.36.21,2.23.63,2.59a5.1,5.1,0,0,0,2.71.73v.69H187.79Zm12.62-12.8a4.47,4.47,0,0,0,2.94-4.53,4.34,4.34,0,0,0-2.63-4.37,9.25,9.25,0,0,0-3.73-.63,4.7,4.7,0,0,0-1.92.22q-.36.22-.36,1v9.09A18.65,18.65,0,0,0,200.41,114.62Z" transform="translate(-18.04 -39.56)" style="fill:#fff"/><path d="M213.94,120.68a12.89,12.89,0,0,0,2.2,4,6.87,6.87,0,0,0,5.45,2.58,4.53,4.53,0,0,0,3-1.11,3.93,3.93,0,0,0,1.29-3.13,4.32,4.32,0,0,0-1.3-3.13,22.4,22.4,0,0,0-3.56-2.54l-3.15-2a11.48,11.48,0,0,1-2.27-1.82,5.67,5.67,0,0,1-1.57-3.86,6.31,6.31,0,0,1,1.86-4.65,6.64,6.64,0,0,1,4.92-1.85,9.36,9.36,0,0,1,3,.62,13.21,13.21,0,0,0,2,.62,1.17,1.17,0,0,0,.94-.32,2.38,2.38,0,0,0,.41-.92H228l.81,7.86H228a8.29,8.29,0,0,0-2.89-5,6.81,6.81,0,0,0-3.94-1.41,4.15,4.15,0,0,0-2.64.89,3,3,0,0,0-1.13,2.48,3.63,3.63,0,0,0,.87,2.44,11,11,0,0,0,2.68,2.14l3.24,2a17,17,0,0,1,4.3,3.45,5.9,5.9,0,0,1,1.23,3.74,6.21,6.21,0,0,1-2.19,4.85,8.11,8.11,0,0,1-5.6,2,10.7,10.7,0,0,1-3.58-.65,13.8,13.8,0,0,0-2.14-.65.92.92,0,0,0-.87.4,2.62,2.62,0,0,0-.3.85h-.81l-1.1-7.86Z" transform="translate(-18.04 -39.56)" style="fill:#fff"/><path d="M232.28,127.42a6.19,6.19,0,0,0,2.92-.67c.45-.34.67-1.22.67-2.65V107.68c0-1.36-.22-2.23-.67-2.62a5.28,5.28,0,0,0-2.92-.7v-.68h10.93v.68a5.32,5.32,0,0,0-2.93.7c-.44.39-.66,1.26-.66,2.62V124.1c0,1.43.22,2.31.66,2.65a6.24,6.24,0,0,0,2.93.67v.69H232.28Z" transform="translate(-18.04 -39.56)" style="fill:#fff"/><path d="M246.07,103.68h20.87l.2,6.27h-.88c-.44-2-1-3.25-1.65-3.85s-2.07-.89-4.21-.89h-2.06V124.1c0,1.43.23,2.31.67,2.65a6.23,6.23,0,0,0,2.92.67v.69H251.17v-.69a5.15,5.15,0,0,0,2.92-.77c.39-.4.58-1.39.58-3V105.21h-2.08c-2,0-3.43.3-4.17.88s-1.3,1.88-1.67,3.86h-.9Z" transform="translate(-18.04 -39.56)" style="fill:#fff"/><path d="M279.74,103.68v.68a5.94,5.94,0,0,0-1.95.2,1,1,0,0,0-.64,1,2.13,2.13,0,0,0,.1.59,4.25,4.25,0,0,0,.49.93l5.43,8,5.31-8.09a4.15,4.15,0,0,0,.42-.87,2.26,2.26,0,0,0,.1-.5,1,1,0,0,0-.85-1,7.51,7.51,0,0,0-1.73-.18v-.68h8.07v.68a3.77,3.77,0,0,0-2,.67,13.4,13.4,0,0,0-3.08,3.55L284,116.91v7.18q0,2.14.69,2.67a6.3,6.3,0,0,0,3.11.66v.69H276.5v-.69c1.67-.1,2.71-.34,3.11-.75s.6-1.4.6-3v-6.41l-4.83-7.08a43.64,43.64,0,0,0-3.51-4.7,3.59,3.59,0,0,0-2.46-1.11v-.68Z" transform="translate(-18.04 -39.56)" style="fill:#fff"/><path d="M18.29,50.17H42.05l.22,7.14h-1c-.5-2.24-1.12-3.7-1.88-4.38s-2.35-1-4.79-1H32.26v21.5c0,1.62.25,2.63.76,3a7.08,7.08,0,0,0,3.32.76V78H24.1v-.78c1.77-.14,2.88-.43,3.32-.88s.66-1.58.66-3.39v-21H25.72c-2.33,0-3.91.34-4.75,1s-1.48,2.13-1.9,4.39H18Z" transform="translate(-18.04 -39.56)" style="fill:#fff"/><path d="M45,77.19a6.1,6.1,0,0,0,3-.83c.45-.38.68-1.37.68-3V54.73c0-1.5-.22-2.47-.67-2.93A5,5,0,0,0,45,51v-.78H67.27l.14,6H66.35c-.36-1.85-.89-3-1.6-3.59s-2.3-.82-4.76-.82H54.27q-.93,0-1.14.3a2,2,0,0,0-.22,1.11v9.38h6.48c1.79,0,2.94-.26,3.43-.79A6.92,6.92,0,0,0,64,58.54h1v9.7H64A7.11,7.11,0,0,0,62.8,65c-.49-.52-1.63-.79-3.41-.79H52.91v10.4c0,.84.26,1.33.79,1.48a26.64,26.64,0,0,0,4.74.23,15.75,15.75,0,0,0,6.3-.94q2-.93,3.66-4.52h1.17L67.66,78H45Z" transform="translate(-18.04 -39.56)" style="fill:#fff"/><path d="M70.49,77.19a4.86,4.86,0,0,0,2.56-.89,35.83,35.83,0,0,0,3.48-3.94l6.49-8-4.61-6.75a36,36,0,0,0-4.22-5.48A5,5,0,0,0,70.94,51v-.78H83.58V51a10,10,0,0,0-2.38.25,1.1,1.1,0,0,0-.84,1.16,3.16,3.16,0,0,0,.41,1.37,9.1,9.1,0,0,0,.57.94L85.67,61l4.72-5.73a11.16,11.16,0,0,0,1.4-2,1.9,1.9,0,0,0,.23-.82,1.19,1.19,0,0,0-.9-1.23,7,7,0,0,0-2-.21v-.78h9.95V51a6.14,6.14,0,0,0-2.61.53,14.56,14.56,0,0,0-3.61,3.45l-6.07,7.62,8,11.53a8.12,8.12,0,0,0,2.13,2.36,7,7,0,0,0,2.48.75V78H87v-.78a8.36,8.36,0,0,0,2.48-.31,1,1,0,0,0,.71-1,5.29,5.29,0,0,0-.94-2.19q-.93-1.53-5.16-7.73l-4.93,6.19c-.72.91-1.22,1.57-1.51,2A3.13,3.13,0,0,0,77,75.6,1.31,1.31,0,0,0,78,76.86a8.92,8.92,0,0,0,2.14.33V78H70.49Z" transform="translate(-18.04 -39.56)" style="fill:#fff"/><path d="M98.84,78v-.78A3.45,3.45,0,0,0,101.27,76,33.56,33.56,0,0,0,104,70.3l8.76-20.62h.83L124.1,73.5a10.54,10.54,0,0,0,1.67,2.93,4.08,4.08,0,0,0,2.11.76V78H117.19v-.78a9.38,9.38,0,0,0,2.38-.4c.35-.16.53-.54.53-1.15a5,5,0,0,0-.21-1.09,10.63,10.63,0,0,0-.57-1.63l-1.68-4H106.57q-1.65,4.13-2,5a4.8,4.8,0,0,0-.32,1.44,1.49,1.49,0,0,0,.86,1.47,6.65,6.65,0,0,0,2,.37V78Zm18.09-10.79-4.82-11.57-4.83,11.57Z" transform="translate(-18.04 -39.56)" style="fill:#fff"/><path d="M130.26,69.52A15.33,15.33,0,0,0,132.75,74,7.83,7.83,0,0,0,139,77a5.09,5.09,0,0,0,3.47-1.27,4.45,4.45,0,0,0,1.47-3.55,4.93,4.93,0,0,0-1.48-3.57,26.47,26.47,0,0,0-4-2.89l-3.58-2.24a12.52,12.52,0,0,1-2.58-2.07A6.43,6.43,0,0,1,130.42,57a7.17,7.17,0,0,1,2.11-5.29,7.58,7.58,0,0,1,5.6-2.12,10.85,10.85,0,0,1,3.46.71,15.29,15.29,0,0,0,2.31.71,1.32,1.32,0,0,0,1.08-.37,2.71,2.71,0,0,0,.46-1h.86l.92,9h-1c-.69-2.69-1.78-4.58-3.3-5.64a7.72,7.72,0,0,0-4.48-1.6,4.71,4.71,0,0,0-3,1,3.4,3.4,0,0,0-1.29,2.82,4.09,4.09,0,0,0,1,2.77,12.34,12.34,0,0,0,3.05,2.44l3.69,2.28a19.23,19.23,0,0,1,4.89,3.92,6.78,6.78,0,0,1,1.4,4.27,7.07,7.07,0,0,1-2.5,5.52,9.25,9.25,0,0,1-6.37,2.21,12.2,12.2,0,0,1-4.07-.74,15.13,15.13,0,0,0-2.43-.73,1,1,0,0,0-1,.45,2.57,2.57,0,0,0-.34,1h-.93l-1.25-8.94Z" transform="translate(-18.04 -39.56)" style="fill:#fff"/><path d="M214.15,69.52a15.34,15.34,0,0,0,2.5,4.51A7.83,7.83,0,0,0,222.86,77a5.09,5.09,0,0,0,3.47-1.27,4.45,4.45,0,0,0,1.47-3.55,5,5,0,0,0-1.48-3.57,26.47,26.47,0,0,0-4-2.89l-3.59-2.24a13.08,13.08,0,0,1-2.58-2.07A6.41,6.41,0,0,1,214.32,57a7.17,7.17,0,0,1,2.11-5.29,7.58,7.58,0,0,1,5.6-2.12,10.85,10.85,0,0,1,3.46.71,14.58,14.58,0,0,0,2.31.71,1.29,1.29,0,0,0,1.07-.37,2.44,2.44,0,0,0,.46-1h.87l.92,9h-1c-.68-2.69-1.78-4.58-3.29-5.64a7.72,7.72,0,0,0-4.48-1.6,4.75,4.75,0,0,0-3,1,3.42,3.42,0,0,0-1.28,2.82,4.13,4.13,0,0,0,1,2.77,12.61,12.61,0,0,0,3.06,2.44l3.69,2.28a19.33,19.33,0,0,1,4.88,3.92,6.72,6.72,0,0,1,1.4,4.27,7.1,7.1,0,0,1-2.49,5.52,9.25,9.25,0,0,1-6.37,2.21,12.15,12.15,0,0,1-4.07-.74,15.46,15.46,0,0,0-2.43-.73,1.05,1.05,0,0,0-1,.45,3,3,0,0,0-.34,1h-.92l-1.25-8.94Z" transform="translate(-18.04 -39.56)" style="fill:#fff"/><path d="M236.14,50.17H259.9l.22,7.14h-1c-.5-2.24-1.12-3.7-1.88-4.38s-2.36-1-4.79-1h-2.34v21.5c0,1.62.25,2.63.76,3a7.1,7.1,0,0,0,3.33.76V78H242v-.78c1.77-.14,2.88-.43,3.32-.88s.65-1.58.65-3.39v-21h-2.35c-2.33,0-3.91.34-4.75,1s-1.48,2.13-1.9,4.39h-1Z" transform="translate(-18.04 -39.56)" style="fill:#fff"/><path d="M260.51,78v-.78A3.41,3.41,0,0,0,262.94,76a33.29,33.29,0,0,0,2.78-5.67l8.75-20.62h.84L285.78,73.5a10,10,0,0,0,1.67,2.93,4.07,4.07,0,0,0,2.1.76V78H278.87v-.78a9.17,9.17,0,0,0,2.37-.4c.36-.16.53-.54.53-1.15a4.77,4.77,0,0,0-.2-1.09,13.32,13.32,0,0,0-.57-1.63l-1.69-4H268.24q-1.64,4.13-1.95,5a4.5,4.5,0,0,0-.32,1.44,1.49,1.49,0,0,0,.86,1.47,6.51,6.51,0,0,0,2,.37V78ZM278.6,67.18l-4.81-11.57L269,67.18Z" transform="translate(-18.04 -39.56)" style="fill:#fff"/><path d="M290,50.17h23.76l.23,7.14h-1q-.74-3.36-1.88-4.38c-.76-.68-2.35-1-4.79-1H304v21.5c0,1.62.26,2.63.77,3a7,7,0,0,0,3.32.76V78H295.8v-.78c1.78-.14,2.89-.43,3.32-.88s.66-1.58.66-3.39v-21h-2.36c-2.32,0-3.91.34-4.75,1s-1.47,2.13-1.9,4.39h-1Z" transform="translate(-18.04 -39.56)" style="fill:#fff"/><path d="M317.29,77.19a6.09,6.09,0,0,0,3-.83c.46-.38.69-1.37.69-3V54.73a4.39,4.39,0,0,0-.68-2.93,5,5,0,0,0-3-.85v-.78h22.32l.14,6h-1.07c-.35-1.85-.89-3-1.6-3.59s-2.29-.82-4.76-.82H326.6c-.61,0-1,.1-1.14.3a2.05,2.05,0,0,0-.22,1.11v9.38h6.49c1.79,0,2.93-.26,3.42-.79a6.81,6.81,0,0,0,1.19-3.23h1v9.7h-1A7,7,0,0,0,335.13,65c-.49-.52-1.63-.79-3.4-.79h-6.49v10.4c0,.84.27,1.33.8,1.48a26.41,26.41,0,0,0,4.73.23,15.84,15.84,0,0,0,6.31-.94c1.36-.62,2.57-2.13,3.66-4.52h1.16L340,78H317.29Z" transform="translate(-18.04 -39.56)" style="fill:#fff"/><path d="M150,61.35l.12.09h0l18.42,13.38,0,.06-7.06,21.74.07-.06h0L180,83.15l18.54,13.47-7.08-21.8L210,61.35H187.08L180,39.56l-7.08,21.79H150Zm4.87,1.58L180,71.15l-5.94-8.22L180,44.66V71.15l5.94-8.22h19.21L180,71.15h0l9.61,3.08,5.93,18.26L180,71.15v10L164.47,92.49,180,71.15l-9.61,3.07Z" transform="translate(-18.04 -39.56)" style="fill:#fff"/></svg>